<svg width="24" height="24" viewBox="0 0 24 24" fill="none" xmlns="http://www.w3.org/2000/svg">
<path d="M6.525 10.85L12.025 2L17.525 10.85H6.525ZM17.65 22C16.4167 22 15.3833 21.5833 14.55 20.75C13.7167 19.9167 13.3 18.8833 13.3 17.65C13.3 16.4167 13.7167 15.3833 14.55 14.55C15.3833 13.7167 16.4167 13.3 17.65 13.3C18.8833 13.3 19.9167 13.7167 20.75 14.55C21.5833 15.3833 22 16.4167 22 17.65C22 18.8833 21.5833 19.9167 20.75 20.75C19.9167 21.5833 18.8833 22 17.65 22ZM3 21.375V13.775H10.6V21.375H3ZM17.65 20.5C18.45 20.5 19.125 20.225 19.675 19.675C20.225 19.125 20.5 18.45 20.5 17.65C20.5 16.85 20.225 16.175 19.675 15.625C19.125 15.075 18.45 14.8 17.65 14.8C16.85 14.8 16.175 15.075 15.625 15.625C15.075 16.175 14.8 16.85 14.8 17.65C14.8 18.45 15.075 19.125 15.625 19.675C16.175 20.225 16.85 20.5 17.65 20.5ZM4.5 19.875H9.1V15.275H4.5V19.875ZM9.225 9.35H14.825L12.025 4.825L9.225 9.35Z" fill="white"/>
</svg>
