<svg width="18" height="22" viewBox="0 0 18 22" fill="none" xmlns="http://www.w3.org/2000/svg">
<path d="M6.38463 16.3428L9.00001 13.9143L11.6154 16.3428L12.9077 15.1428L10.2923 12.7143L12.9077 10.2857L11.6154 9.08571L9.00001 11.5143L6.38463 9.08571L5.09232 10.2857L7.70771 12.7143L5.09232 15.1428L6.38463 16.3428ZM3.46155 19.5714H14.5385V5.85714H3.46155V19.5714ZM0.692322 3.57142V1.85714H4.8154L6.04617 0.714278H11.9539L13.1846 1.85714H17.3077V3.57142H0.692322ZM3.46155 21.2857C2.96924 21.2857 2.53848 21.1143 2.16924 20.7714C1.80001 20.4286 1.6154 20.0286 1.6154 19.5714V4.14285H16.3846V19.5714C16.3846 20.0286 16.2 20.4286 15.8308 20.7714C15.4616 21.1143 15.0308 21.2857 14.5385 21.2857H3.46155ZM3.46155 19.5714H14.5385H3.46155Z" fill="white"/>
</svg>
