<svg width="22" height="22" viewBox="0 0 22 22" fill="none" xmlns="http://www.w3.org/2000/svg">
<path d="M0.84613 21.2857V18.4394H21.1123V21.2857H0.84613ZM2.92341 15.9459V12.8174L12.3725 4.04321L15.7417 7.1718L6.29265 15.9459H2.92341ZM4.44337 14.5346H5.58334L13.5631 7.12475L12.4232 6.06621L4.44337 13.476V14.5346ZM16.8564 6.13678L13.4871 3.00819L15.6151 1.03225C15.8008 0.828379 16.0119 0.722525 16.2484 0.714684C16.4848 0.706843 16.7213 0.812697 16.9577 1.03225L18.9336 2.86706C19.1532 3.07092 19.263 3.28655 19.263 3.51394C19.263 3.74133 19.1701 3.95696 18.9843 4.16083L16.8564 6.13678Z" fill="white"/>
</svg>
