<svg xmlns="http://www.w3.org/2000/svg" viewBox="40 70 460 70"><g id="logo-shape"><path fill="#ffc300" d="M137.4 108.3c0 5.5-4.4 9.9-9.9 9.9H60.7c-5.5 0-9.9-4.4-9.9-9.9s4.4-9.9 9.9-9.9h66.8c5.5 0 9.9 4.4 9.9 9.9"/><path fill="#24d7ff" d="M73 133a9.9 9.9 0 01-9.9-9.9l10-66.8c0-5.5 4.4-9.9 9.9-9.9s9.9 4.4 9.9 9.9l-10 66.8A10 10 0 0173 133"/><path fill="#bbd922" d="M143.4 71.6c0 5.5-4.4 9.9-9.9 9.9H66.7c-5.5 0-9.9-4.4-9.9-9.9s4.4-9.9 9.9-9.9h66.8a10 10 0 019.9 9.9"/><path fill="#ef0a30" d="M111.6 133a9.9 9.9 0 01-9.9-9.9l10-66.8c0-5.5 4.4-9.9 9.9-9.9s9.9 4.4 9.9 9.9l-10 66.8a10 10 0 01-9.9 9.9"/><path fill="#ffc300" d="M137.4 108.3c0 5.5-4.4 9.9-9.9 9.9H94.1V98.4h33.4c5.5 0 9.9 4.4 9.9 9.9"/></g><g id="logo-text"><path fill="#bfbfbf" d="M179.7 155.5h-6.1l-1.3 3.9c-.1.1-3.1-.1-3.3-.4.5-1.8 5.3-16.4 5.6-16.5.2-.1 3.6-.3 4.2-.2.1 0 5.4 14.5 5.8 16.8-.4.4-3.3.5-3.4.4l-1.5-4zm-3-10.1c-.4 1.2-1.6 5.2-2.5 7.6l5.1-.1c-.9-2.5-2.2-6.4-2.4-7.5h-.2zm41.1 11.3a7 7 0 004.1-1.5c.5.3 1.2 1.8 1.5 2.4-.9 1-3.3 2.2-5.9 2.2-5.4 0-7.9-3.9-7.9-8.9 0-4.8 3.2-8.5 8.4-8.5 2.6 0 4.5.8 5.3 1.5 0 .4-.8 2.3-1.3 2.7a7.3 7.3 0 00-4-1.2c-2.9 0-5 2.4-5 5.6 0 3.7 2.1 5.7 4.8 5.7zm41.6-1.2h-6.1l-1.3 3.9c-.1.1-3.1-.1-3.3-.4.5-1.8 5.3-16.4 5.6-16.5.2-.1 3.6-.3 4.2-.2.1 0 5.4 14.5 5.8 16.8-.4.4-3.3.5-3.4.4l-1.5-4zm-3.1-10.1c-.4 1.2-1.6 5.2-2.5 7.6l5.1-.1c-.9-2.5-2.2-6.4-2.4-7.5h-.2zm34.4-2.8l4.8-.2c5.5 0 8.9 3.7 8.9 8.5 0 5-2.7 8.6-9.1 8.6-2 0-4.2-.2-4.7-.3-.2-1.4 0-15.2.1-16.6zm4.8 2.9l-1.7.1-.1 10.9 1.9.1c2.4 0 5.5-.7 5.5-5.4-.1-3.4-2.4-5.7-5.6-5.7zm46.5 13.9c.1.1-9.3.2-10.6 0-.1-2.1 0-13.8.1-16.8 1.7-.1 10.4-.2 10.9-.1.2.3.1 2.3 0 2.8h-7.8v4.2l6 .1c.2.2.1 2.6.1 2.7h-6.1v4.3a89 89 0 017.4 0v2.8zm35.9-4.4c1-4.1 3.4-12.1 3.7-12.4.2-.2 2.7-.3 3.2-.1.1.1 2.7 15.6 2.7 16.7-.2.4-3 .6-3.1.5l-1.8-12h-.1c-.6 2.5-2.8 9.9-3.4 11.8-.4.1-2.6.2-2.8 0l-3.2-11.8h-.1c-.4 2.5-1.6 10.4-2 11.9-.5.1-3-.1-3-.5l3-16.4c.2-.3 2.6-.3 3.1-.2.3.5 2.9 9.3 3.6 12.6h.2zm42.6-2.2v6.6c-.2.4-3.3.2-3.3 0v-6.7c-.8-1.4-5.4-9.1-5.3-9.4 0-.3 2.6-1 2.9-1 .1 0 3.2 5.5 4 7.2h.1c1-1.7 4.1-7.2 4.3-7.2.3-.1 2.9.6 2.9.9 0 .4-4.9 8.4-5.6 9.6z"/><path fill="#fff" d="M203.3 120.8l-.3-22.7c-5.9.1-15.9.2-21.3.1 0 9.2-.1 18-.3 22.5-2.8.8-15.4 1-15.5.2-.4-4.9-1-54.9-.3-60.7.2-1.8 15.2-.9 15.4-.3.2 2.8.4 12.9.5 24.4l21.4-.2c.1-10.4.2-20 .4-23.2 2.9-.8 14.8-.7 15.3-.2.6.5.7 53.9-.2 59.8-.2 1.8-15.1 1-15.1.3zM245 77c10.7 0 18.9 6.3 18.9 18.9 0 9.2-.4 23.5-.7 24-.3.5-11.1 0-11.1 0l-.8-3.7c-.6.6-4.2 4.7-11 4.7-9.4 0-13.4-5.5-13.4-13 0-7.8 6.8-12.7 15.4-12.7 4 0 6.4 1.1 8 2.3.1-3.7.3-8.8-7.5-8.8-5.3 0-7.8 3.8-8.6 3.9-.8 0-6.7-5.2-6.6-6.1.1-1.4 5.8-9.5 17.4-9.5zm-.9 35.5c3.8 0 5.7-2.2 5.7-4.8 0-3-2.5-4.9-5.7-4.9-3.4 0-5.6 2.2-5.6 4.9 0 2.9 2.4 4.8 5.6 4.8zm26.2 4.6c-.7-.9 3.3-10.3 4-9.9 1.4.7 6.7 4.6 12.2 4.6 3.4 0 5.2-1.2 5.2-3.1 0-1.9-1.4-2.9-7-4-9.6-1.6-14.1-5.7-14.1-12.9 0-9.2 6.3-14.6 16.9-14.6 7.9 0 14.9 2.7 16 3.8.8.8-3.2 9.8-3.8 9.9-.4 0-5.9-3.4-10.9-3.4-3.4 0-4.8 1.6-4.8 3.4 0 1.9 1.5 2.8 6.5 3.4 10.3 1.5 14.8 5 14.8 13 0 7.6-5.2 14.5-17.2 14.5-8.8 0-16.6-3.4-17.8-4.7zm55.1-61c.3 2.2-.2 24.2-.4 26.4 1.9-2.6 5.3-5.2 11.3-5.2 11.7 0 17.6 7.4 17.6 18.5 0 5.8-.7 22.7-1.2 24.3-.4.8-13.2.7-13.4.5-.2-.9.1-20.2.1-23.3 0-3.6-2-7.8-6.5-7.8a7.1 7.1 0 00-7.3 7.1c0 2.9-.1 23.9-.3 24.1a75 75 0 01-13.4-.3c-.3-.5-.5-59.7-.1-64.4.5-.7 13.3-1.8 13.6.1zm53.2 48.5c0 2.8 1.5 4.6 4.2 4.7 3 0 5.2-2.1 6.3-1.9 1 .3 2.9 8.1 3 9.9 0 0-3.6 4.3-12.6 4.2-9.9 0-14.7-5.3-14.7-13.8l.6-18.9c0-.1-5.5 0-5.9-.4a41 41 0 010-10.5c.3-.1 6.1.2 6.4-.1.3-.3-.3-9.3.5-10.1.8-.8 12.7-1.6 13.1-1.1.4.4-.3 11.5-.2 11.5.2-.1 9.6-.5 10.5.6.9 1.2.2 9.9.2 9.9-.6 1-11 .1-11 .8-.1.4-.4 10.2-.4 15.2zM414.7 77c10.7 0 18.9 6.3 18.9 18.9 0 9.2-.4 23.5-.7 24-.3.5-11.1 0-11.1 0l-.8-3.7c-.6.6-4.2 4.7-11 4.7-9.4 0-13.4-5.5-13.4-13 0-7.8 6.8-12.7 15.4-12.7 4 0 6.4 1.1 8 2.3.1-3.7.3-8.8-7.5-8.8-5.3 0-7.8 3.8-8.6 3.9-.8 0-6.7-5.2-6.6-6.1.1-1.4 5.8-9.5 17.4-9.5zm-.9 35.5c3.8 0 5.7-2.2 5.7-4.8 0-3-2.5-4.9-5.7-4.9-3.4 0-5.6 2.2-5.6 4.9 0 2.9 2.4 4.8 5.6 4.8zm71-34.4c.2.9.7 28.3.8 33.6.3 22.7-11.2 27.9-22 27.9-10.3 0-17.4-4.3-18.4-6.2.8-2.8 2.9-7.3 4.3-9.2.4-.4 5 3.8 12.3 3.8 7.4 0 10.1-5.4 9.9-12.9-.7 1.2-4.1 5.1-11.8 5.1-9.2 0-19.9-7-19.9-20.3 0-13.4 9.7-21.9 20.2-21.9 5.4 0 9.7 2.2 12.4 4.9l.2-4.7c1.3-1.1 11.7-.4 12-.1zm-21.5 30.7c4.7 0 8.6-3.3 8.6-9 0-5.2-2.8-9-8.6-9-4.7 0-8.4 3.1-8.4 9 0 5.4 2.9 9 8.4 9z"/></g></svg>