<?xml version="1.0" encoding="utf-8"?>
<!-- Generator: Adobe Illustrator 26.2.1, SVG Export Plug-In . SVG Version: 6.00 Build 0)  -->
<svg version="1.1" id="Слой_1" xmlns="http://www.w3.org/2000/svg" xmlns:xlink="http://www.w3.org/1999/xlink" x="0px" y="0px"
	 viewBox="0 0 50 50" style="enable-background:new 0 0 50 50;" xml:space="preserve">
<style type="text/css">
	.st0{fill:#003B98;}
	.st1{fill:#FFFFFF;}
</style>
<circle class="st0" cx="25" cy="25" r="25"/>
<path class="st1" d="M31.02,34.08c0,0.55-0.18,1.1-0.55,1.55c-0.85,1.04-2.4,1.19-3.44,0.34l-11.36-9.34
	c-0.6-0.5-0.91-1.23-0.89-1.96c-0.02-0.73,0.28-1.46,0.89-1.96l11.36-9.33c1.04-0.85,2.59-0.7,3.44,0.34c0.37,0.45,0.55,1,0.55,1.55
	c0,0.71-0.3,1.41-0.89,1.89l-9.14,7.51l9.14,7.51C30.72,32.67,31.02,33.37,31.02,34.08z"/>
</svg>
