<svg width="0" height="0" class="hidden" xmlns="http://www.w3.org/2000/svg"  xmlns:xlink="http://www.w3.org/1999/xlink" xmlns:ev="http://www.w3.org/2001/xml-events">
  <symbol version="1.1" id="goods" xmlns="http://www.w3.org/2000/svg" xmlns:xlink="http://www.w3.org/1999/xlink" x="0px" y="0px" xml:space="preserve" viewBox="0 0 170 175">
    <path d="M170,95.06v1.63c0,2.18-1.83,3.96-4.06,3.96h-43.61c-2.23,0-4.06-1.78-4.06-3.96v-1.63
	c0-2.18,1.83-3.96,4.06-3.96c0.12-11.41-4.67-10.91-12.32-11.21H95.76c-3.14,9.29-12.1,15.99-22.66,15.99
	c-10.56,0-19.52-6.7-22.66-15.99H0V44.78h45.42V31.86c0-2.21,1.86-4.03,4.12-4.03h17.95v-6.91c-1.64-0.78-3.06-1.94-4.14-3.37H28.96
	c-2.04,2.71-5.32,4.47-9.03,4.47c-6.18,0-11.2-4.9-11.2-10.93c0-6.04,5.01-10.94,11.2-10.94c3.7,0,6.99,1.76,9.03,4.47h34.39
	c2.04-2.71,5.32-4.47,9.03-4.47c3.7,0,6.99,1.76,9.02,4.47h31.13c2.04-2.71,5.32-4.47,9.02-4.47c6.19,0,11.2,4.9,11.2,10.94
	c0,6.04-5.01,10.93-11.2,10.93c-3.7,0-6.99-1.76-9.02-4.47H81.41c-1.07,1.43-2.49,2.59-4.14,3.37v6.91h18.25
	c2.27,0,4.12,1.81,4.12,4.03v12.92h42.52c12.33,0,22.32,9.76,22.32,21.79V91.1h1.46C168.17,91.1,170,92.88,170,95.06z"></path>
    <path d="M157.92,157.59c0,9.62-7.8,17.41-17.41,17.41s-17.41-7.8-17.41-17.41s17.41-48.09,17.41-48.09
	S157.92,147.97,157.92,157.59z"></path>
  </symbol>
  <symbol version="1.1" id="gps" xmlns="http://www.w3.org/2000/svg" xmlns:xlink="http://www.w3.org/1999/xlink" x="0px" y="0px" xml:space="preserve" viewBox="0 0 22 30">
    <path d="M11,0.05C4.92,0.05,0,4.64,0,10.3s11,19.65,11,19.65S22,15.96,22,10.3S17.07,0.05,11,0.05z M11,15.67
	c-2.29,0-4.14-1.85-4.14-4.14c0-2.28,1.85-4.14,4.14-4.14c2.28,0,4.13,1.86,4.13,4.14C15.13,13.82,13.28,15.67,11,15.67z"></path>
  </symbol>
  <symbol version="1.1" id="like" xmlns="http://www.w3.org/2000/svg" xmlns:xlink="http://www.w3.org/1999/xlink" x="0px" y="0px" xml:space="preserve" viewBox="0 0 29 26">
    <path d="M14.36,25.93c-0.01,0-0.01,0-0.02,0c-0.83-0.01-1.6-0.34-2.18-0.93l-9.59-9.84c-0.09-0.09-0.2-0.22-0.27-0.3
	l-0.01,0c-1.59-1.88-2.35-4-2.26-6.3c0.18-4.55,3.68-8.2,8.16-8.49c2.36-0.15,4.59,0.62,6.32,2.16c1.6-1.41,3.62-2.21,5.81-2.18
	c4.69,0.04,8.58,3.94,8.67,8.69l0,0c0.04,2.25-0.75,4.42-2.24,6.09L16.53,25.03C15.94,25.62,15.17,25.93,14.36,25.93z M4.14,13.26
	l9.77,10.03c0.12,0.12,0.26,0.21,0.44,0.19c0.16,0,0.32-0.06,0.43-0.18l10.16-10.13c1.03-1.16,1.6-2.72,1.57-4.36l0,0
	c-0.06-3.43-2.85-6.25-6.23-6.27c-1.86-0.03-3.64,0.81-4.84,2.27L14.5,5.94L13.55,4.8c-1.3-1.56-3.19-2.38-5.21-2.25
	c-3.16,0.2-5.73,2.89-5.86,6.12C2.42,10.35,2.96,11.85,4.14,13.26z"></path>
  </symbol>
  <symbol version="1.1" id="like_active" xmlns="http://www.w3.org/2000/svg" xmlns:xlink="http://www.w3.org/1999/xlink" x="0px" y="0px" xml:space="preserve" viewBox="0 0 29 26">
        <path d="M2.00964 14.3065L13.7976 26.7565C13.9423 26.9054 14.1113 27.0171 14.3284 26.9923C14.5215 26.9923 14.7145 26.9178 14.8473 26.7689L27.1057 14.1947C28.3485 12.7549 29.0362 10.8185 29 8.78279C28.9276 4.52521 25.5614 1.02482 21.4832 0.999992C19.2391 0.962754 17.0914 2.00543 15.6436 3.81769L14.5094 5.22033L13.3632 3.80527C11.7947 1.86889 9.51434 0.851039 7.07712 1.01241C3.26445 1.26066 0.163632 4.59969 0.00678146 8.60901C-0.0656111 10.6944 0.585922 12.5563 2.00964 14.3065Z"/>
  </symbol>
  <symbol version="1.1" id="man" xmlns="http://www.w3.org/2000/svg" xmlns:xlink="http://www.w3.org/1999/xlink" x="0px" y="0px" xml:space="preserve" viewBox="0 0 200 205">
    <path d="M190.24,157.66c-3.07-6.65-7.56-11.79-14.72-14.83c-14.73-6.24-29.21-13.02-43.84-19.48
	c-2.37-1.05-3.47-2.43-3.52-5.06c-0.1-5.06,0.84-9.45,3.39-14.17c4.06-7.5,7.95-14.99,12.94-21.99c4.36-6.14,6.74-13.2,5.78-20.62
	c-0.19-1.46-1.21-3.35-3-4.23c-1.91-0.94-3.09,1.29-3.14-1.31c-0.13-7.75,0.59-20.61-0.62-28.2c-2.49-15.72-12.06-24.41-28.13-26.95
	c-3.2-0.5-11.82-0.72-14.92-0.79c-0.15,0-0.29,0-0.41-0.01h-0.03c-0.14,0-0.3,0-0.47,0.01c-3.1,0.07-11.73,0.29-14.92,0.79
	C68.55,3.35,58.98,12.04,56.49,27.76c-1.21,7.59-0.49,20.46-0.62,28.2c-0.04,2.6-1.22,0.37-3.14,1.31c-1.79,0.88-2.81,2.77-3,4.23
	c-0.97,7.42,1.41,14.49,5.78,20.62c4.98,7,8.87,14.5,12.94,21.99c2.56,4.72,3.49,9.12,3.39,14.17c-0.05,2.63-1.15,4.01-3.52,5.06
	c-14.63,6.46-29.11,13.24-43.84,19.48c-7.16,3.03-11.65,8.18-14.72,14.83C2.99,172.34,0.58,188.55,0,204.5
	c-0.01,0.16,49.93,0.15,99.54,0.09h0.91c49.61,0.05,99.55,0.07,99.54-0.09C199.42,188.55,197.01,172.34,190.24,157.66z
	 M137.48,174.32c0.81-1.06,2.09-1.75,3.55-1.75c1.45,0,2.74,0.69,3.55,1.75c0.56,0.73,0.89,1.63,0.89,2.61
	c0,2.41-1.99,4.36-4.44,4.36c-2.45,0-4.43-1.95-4.43-4.36C136.59,175.96,136.92,175.05,137.48,174.32z M118.46,8.59
	c1.82,0,3.3,0.89,3.3,2c0,1.1-1.48,2-3.3,2c-1.83,0-3.31-0.89-3.31-2C115.15,9.48,116.63,8.59,118.46,8.59z M81.56,8.59
	c1.82,0,3.3,0.89,3.3,2c0,1.1-1.48,2-3.3,2s-3.31-0.89-3.31-2C78.25,9.48,79.74,8.59,81.56,8.59z M99.54,40.13c0.15,0,0.76,0,0.91,0
	c13.12-0.07,26.2,2.46,36.47,7.95l-0.12,0.39c-2.96-0.77-5.94-1.48-8.95-2.01c-9.18-1.71-18.52-2.37-27.86-2.27
	c-9.34-0.1-18.68,0.56-27.86,2.27c-3.01,0.53-5.99,1.24-8.95,2.01l-0.12-0.39C73.35,42.59,86.43,40.06,99.54,40.13z M68.16,93.54
	c-0.71-2.04-2.09-3.85-3.17-5.77c-3.09-5.45-7.74-9.63-10.28-15.32c-1.14-2.56-2.46-10.16-0.06-10.66c0,0,7.3,8.54,8.74,10.54
	c0.35-0.37-0.77-10.99,0.17-11.71c7.37-5.67,20.07-7.76,35.98-7.9v0.03c15.6,0.15,29.45,2.15,36.89,7.88
	c0.94,0.72-0.17,11.34,0.17,11.71c1.44-2,8.74-10.54,8.74-10.54c2.4,0.51,1.08,8.1-0.06,10.66c-2.54,5.7-7.18,9.87-10.28,15.32
	c-1.09,1.91-2.46,3.73-3.17,5.77c-3.52,10.1-9.16,18.61-19.31,23.1c-3.94,1.74-8.04,2.56-12.08,2.51c-0.15,0-0.3,0-0.45,0
	c-0.15,0-0.3,0-0.46,0c-4.04,0.05-8.14-0.77-12.08-2.51C77.32,112.15,71.69,103.63,68.16,93.54z M114.92,140.56
	c-4.32,3.51-9.4,5.21-14.47,5.03c-0.15,0-0.3-0.01-0.46-0.02c-0.15,0.01-0.3,0.02-0.45,0.02c-5.06,0.19-10.14-1.51-14.47-5.03
	c-6.44-5.23-10.4-16.33-8.08-23.52c0.12-0.35,0.53-0.5,0.85-0.3c7.33,4.62,14.72,6.93,22.16,6.71c7.43,0.22,14.83-2.09,22.15-6.71
	c0.32-0.2,0.74-0.05,0.85,0.3C125.32,124.23,121.36,135.32,114.92,140.56z M55.43,174.32c0.81-1.06,2.1-1.75,3.55-1.75
	c1.45,0,2.74,0.69,3.55,1.75c0.56,0.73,0.89,1.63,0.89,2.61c0,2.41-1.99,4.36-4.43,4.36c-2.45,0-4.44-1.95-4.44-4.36
	C54.54,175.96,54.87,175.05,55.43,174.32z M193.22,199.66c0,0-24.97-0.05-35.26,0.05c-0.31,0-0.56-0.24-0.57-0.55l-0.65-28.97
	c-0.04-1.7-1.43-3.06-3.16-3.06c-0.31,0-0.65,0-1-0.01v17.23c0,1.3-1.08,2.36-2.4,2.36h-18.31c-1.33,0-2.4-1.06-2.4-2.36v-17.37
	c-9.29-0.06-19.69-0.12-29.01-0.18h-0.91c-9.32,0.06-19.72,0.12-29.01,0.18v17.37c0,1.3-1.08,2.36-2.4,2.36H49.82
	c-1.33,0-2.4-1.06-2.4-2.36v-17.23c-0.35,0-0.69,0-1,0.01c-1.73,0.01-3.13,1.37-3.16,3.06l-0.65,28.97
	c-0.01,0.3-0.26,0.55-0.57,0.55c-10.29-0.11-35.26-0.05-35.26-0.05c-2.3,0.05,1.91-24.15,3.74-30.54c3.03-11.97,9.58-20.82,19.43-24
	c5.41-1.75,12.91-4.96,19.15-7.54c0.37-0.15,0.78,0.12,0.78,0.52l-0.02,24.1v1.87l-0.02,20.42h18.23v-16.32h-0.01v-39.25
	c0.66-0.92,1.77-1.57,3.56-1.83c0.27-0.04,0.52,0.13,0.61,0.38c4.21,12.41,11.29,22,26.32,22.18c0.49,0.01,0.97,0,1.44-0.01
	c0.47,0.01,0.95,0.02,1.43,0.01c15.03-0.18,22.12-9.77,26.32-22.18c0.09-0.25,0.34-0.42,0.61-0.38c1.79,0.26,2.9,0.91,3.56,1.83
	v39.25h-0.01v16.32h18.23l-0.02-20.42v-1.87l-0.02-24.1c0-0.4,0.41-0.67,0.78-0.52c6.24,2.58,13.74,5.79,19.15,7.54
	c9.86,3.18,16.4,12.03,19.43,24C191.31,175.52,195.52,199.72,193.22,199.66z"></path>
  </symbol>
  <symbol xmlns="http://www.w3.org/2000/svg" viewBox="0 0 29 18" id="ru_flag">
    <g>
      <path fill="#d52b1e" stroke="null" id="svg_2" d="m0,11.999998l29,0l0,6.000002l-29,0l0,-6.000002z"></path>
      <path fill="#0039a6" stroke="null" id="svg_5" d="m0,6l29,0l0,6l-29,0l0,-6z"></path>
      <path fill="#ffffff" stroke="null" id="svg_6" d="m0,0l29,0l0,6l-29,0l0,-6z"></path>
    </g>
  </symbol>
  <symbol version="1.1" id="cow" xmlns="http://www.w3.org/2000/svg" xmlns:xlink="http://www.w3.org/1999/xlink" x="0px" y="0px" xml:space="preserve" viewBox="0 0 175 175">
    <path d="M167.05,42.84c-12.07-8.03-24.62-7.69-37.71-1.81c-0.66,0.29-1.44-0.07-1.63-0.78
	c-0.23-0.82-0.46-1.66-0.69-2.51c-0.15-0.52,0.08-1.07,0.54-1.35c14.26-8.54,24.74-20.15,31.94-34.66c0.2-0.39,0.16-0.86-0.09-1.22
	c-0.23-0.33-0.6-0.51-0.99-0.51c-0.11,0-0.22,0.02-0.34,0.05c-1.49,0.44-3.01,0.83-4.43,1.43c-11.55,4.9-23.01,10.06-35.66,11.59
	c-4.9,0.59-9.43,0.31-14.13-2.04C97.9,8.05,91.76,6.5,85.63,6.49h-0.08c-6.14,0.01-12.28,1.56-18.24,4.54
	c-4.7,2.35-9.22,2.63-14.13,2.04c-12.65-1.53-24.1-6.69-35.65-11.59c-1.43-0.6-2.94-0.99-4.44-1.43c-0.5-0.15-1.03,0.04-1.32,0.46
	c-0.15,0.21-0.22,0.45-0.22,0.69c0,0.18,0.04,0.36,0.12,0.53c7.2,14.51,17.68,26.12,31.94,34.66c0.47,0.28,0.69,0.83,0.55,1.35
	c-0.23,0.85-0.47,1.69-0.69,2.51c-0.2,0.71-0.97,1.07-1.64,0.78c-13.09-5.88-25.63-6.22-37.71,1.81c-6.09,4.05-5.3,10.97,1.5,13.84
	c2.87,1.2,6.26,1.99,9.33,1.76c8.89-0.65,17.74-1.85,26.61-2.87c0.61-0.07,1.17,0.33,1.31,0.92c0.74,3.27,1.49,7.23,2.71,11.04
	c4.77,14.9,6.62,30.15,6.25,45.77c-0.3,12.56,5.68,20.82,18.02,22.96c5.08,0.88,10.32,1.29,15.55,1.34h0.25
	c5.2-0.06,10.62-0.47,15.67-1.34c12.34-2.14,18.32-10.4,18.02-22.96c-0.36-15.62,1.48-30.87,6.26-45.77
	c1.22-3.81,1.96-7.77,2.71-11.04c0.13-0.59,0.69-0.99,1.3-0.92c8.88,1.02,17.72,2.22,26.61,2.87c3.07,0.23,6.46-0.56,9.33-1.76
	C172.35,53.81,173.14,46.89,167.05,42.84z M109.85,56.35c-8.4,5.77-11.66,13.77-12.95,23.24c-1.63,11.87-2.61,23.5,7.89,32.39
	c0.41,0.35,0.69,0.87,1.01,1.33c3.86,5.75,2.22,11.28-4.44,13.02c-5,1.31-7.56,1.53-15.71,1.54h-0.23c-8.23,0-10.58-0.22-15.61-1.54
	c-6.66-1.74-8.3-7.27-4.43-13.02c0.31-0.46,0.59-0.98,1-1.33c10.5-8.89,9.52-20.52,7.9-32.39c-1.3-9.47-4.55-17.47-12.95-23.24
	c-12.98-8.91-13.32-23.04-1.39-33.89c6.29-5.72,13.9-8,22.21-8.42c1.14-0.05,2.27-0.09,3.4-0.09h0.08c1.12,0,2.25,0.04,3.39,0.09
	c8.31,0.42,15.93,2.7,22.21,8.42C123.17,33.31,122.82,47.44,109.85,56.35z"></path>
    <path d="M85.59,124.96c-5.63,0.01-7.05,0.1-10.14-0.74c-4.94-1.34-6.09-5.21-3.09-9.35c1.9-2.61,3.83-5.2,5.82-7.74
	c2.84-3.64,11.81-3.72,14.7-0.11c2.02,2.52,3.95,5.12,5.84,7.73c3.17,4.37,1.98,8.23-3.23,9.53
	C92.12,125.11,91.75,124.96,85.59,124.96z"></path>
    <path d="M110.65,173.45l27.99-48.48l1.87,2.7l-9.02,15.62c4.57-3.59,17.47-12.6,27.88-8.99c0,0-25.86,10.36-45.72,40.86
	L110.65,173.45z"></path>
    <path d="M164.28,83.52c-1.54,3.06-5.27,4.3-8.33,2.77c-3.06-1.54-4.3-5.27-2.77-8.33s11.17-11.65,12.84-10.77
	C168.04,68.25,165.81,80.46,164.28,83.52z"></path>
    <path d="M163.75,97.21c-2.84,1.22-6.04,0.12-7.16-2.46c-1.11-2.58,0.29-5.67,3.13-6.89c2.84-1.22,14.32-1.92,14.9-0.48
	C175.33,89.11,166.59,95.99,163.75,97.21z"></path>
    <path d="M155.35,91.58c1.22,2.84,0.12,6.04-2.46,7.16c-2.58,1.11-5.67-0.29-6.89-3.13c-1.22-2.84-1.92-14.32-0.48-14.9
	C147.25,80,154.13,88.74,155.35,91.58z"></path>
    <path d="M149.03,102.63c1.29,2.99-0.01,6.42-2.91,7.67c-2.89,1.25-6.28-0.17-7.57-3.16
	c-1.29-2.99-1.78-15.18-0.17-15.83C140.33,90.52,147.74,99.64,149.03,102.63z"></path>
    <path d="M141.58,114.34c1.16,3.66-0.71,7.53-4.19,8.63c-3.48,1.1-7.24-0.97-8.4-4.64c-1.16-3.66-0.4-18.01,1.53-18.58
	C132.85,99.07,140.42,110.68,141.58,114.34z"></path>
    <path d="M152.86,122.85c-3.84,1.26-7.83-0.42-8.92-3.74c-1.09-3.32,1.14-7.03,4.98-8.29c3.84-1.26,18.77-1.04,19.33,0.8
	C168.92,113.86,156.7,121.59,152.86,122.85z"></path>
    <path d="M157.68,108.86c-3.09,1.01-6.3-0.34-7.18-3.01c-0.88-2.67,0.92-5.66,4.01-6.67c3.09-1.01,15.11-0.84,15.56,0.65
	C170.61,101.62,160.77,107.85,157.68,108.86z"></path>
  </symbol>
  <symbol version="1.1" id="str" xmlns="http://www.w3.org/2000/svg" xmlns:xlink="http://www.w3.org/1999/xlink" x="0px" y="0px" xml:space="preserve" viewBox="0 0 50 50">
    <circle cx="25" cy="25" r="25"></circle>
    <path d="M31.02,34.08c0,0.55-0.18,1.1-0.55,1.55c-0.85,1.04-2.4,1.19-3.44,0.34l-11.36-9.34
	c-0.6-0.5-0.91-1.23-0.89-1.96c-0.02-0.73,0.28-1.46,0.89-1.96l11.36-9.33c1.04-0.85,2.59-0.7,3.44,0.34c0.37,0.45,0.55,1,0.55,1.55
	c0,0.71-0.3,1.41-0.89,1.89l-9.14,7.51l9.14,7.51C30.72,32.67,31.02,33.37,31.02,34.08z"></path>
  </symbol>
  <symbol version="1.1" id="tel" xmlns="http://www.w3.org/2000/svg" xmlns:xlink="http://www.w3.org/1999/xlink" xmlns:ev="http://www.w3.org/2001/xml-events" x="0px" y="0px" xml:space="preserve" viewBox="0 0 42 42">
    <path d="M35.63,0H6.37C2.87,0,0,2.91,0,6.47v30.16C0,39.58,2.37,42,5.28,42h31.44c2.91,0,5.28-2.42,5.28-5.36V6.47
	C42,2.91,39.13,0,35.63,0z M36.49,30.56c-0.09,0.36-0.25,0.75-0.51,1c-1.04,0.99-2.06,2-3.33,2.72c-1.52,0.86-3.16,1.24-4.78,1.26
	c-2.62-0.03-4.88-0.84-7-2.09c-2.31-1.36-4.29-3.13-6.12-5.06c-1.98-2.11-3.77-4.35-5.18-6.87c-0.98-1.76-1.75-3.6-2.04-5.6
	c-0.48-3.31,0.26-6.29,2.73-8.72c0.68-0.66,1.43-1.25,2.19-1.83c0.92-0.71,1.85-0.68,2.75,0.05c0.35,0.3,0.71,0.62,0.96,1
	c0.8,1.19,1.59,2.41,2.3,3.64c0.07,0.11,0.12,0.23,0.17,0.35c0.6,1.46,0.06,3.14-1.14,4.15c-0.43,0.36-0.87,0.71-1.32,1.03
	c-1.11,0.81-1.45,1.69-1.08,3.01c0.3,1.06,0.87,2,1.53,2.88c1.38,1.86,2.9,3.6,4.78,5.01c0.62,0.47,1.27,0.85,2.04,1.05
	c0.89,0.23,1.67,0.03,2.33-0.59c0.58-0.54,1.15-1.07,1.73-1.6c1.11-1.01,2.35-1.12,3.69-0.51c1.02,0.48,1.86,1.19,2.69,1.92
	c0.69,0.61,1.36,1.22,1.97,1.9C36.35,29.17,36.69,29.82,36.49,30.56z"></path>
  </symbol>
  <symbol version="1.1" id="basket" xmlns="http://www.w3.org/2000/svg" xmlns:xlink="http://www.w3.org/1999/xlink" x="0px" y="0px" xml:space="preserve" viewBox="0 0 30 26">
    <path d="M9.16,14.63c0.04,0.26,0.07,0.51,0.11,0.76c0.09,0.56,0.19,1.12,0.27,1.67c0.02,0.15,0.08,0.18,0.23,0.18
	c5.02,0,10.04,0,15.07,0c0.23,0,0.47,0.02,0.69,0.07c0.51,0.11,0.82,0.47,0.85,0.99c0.02,0.34-0.04,0.67-0.19,0.99
	c-0.21,0.43-0.59,0.56-1.05,0.56c-0.75,0-1.5,0-2.25,0c-2.46,0-4.92,0-7.38,0c-2.16,0-4.32,0-6.48,0c-0.78,0-1.33-0.34-1.73-0.95
	c-0.42-0.65-0.61-1.38-0.75-2.12c-0.27-1.38-0.55-2.76-0.82-4.14C5.5,11.38,5.25,10.13,5,8.87C4.64,7.06,4.27,5.24,3.91,3.42
	C3.91,3.4,3.9,3.37,3.89,3.34c-0.15,0-0.3,0-0.45,0c-0.55,0-1.1-0.03-1.65,0.01C0.88,3.39,0.37,2.77,0.17,2.22
	C0.09,2.01,0.05,1.79,0,1.57c0-0.16,0.01-0.32,0.01-0.47c0-0.02,0.01-0.02,0.01-0.03C0.12,0.45,0.65-0.01,1.43,0
	c1.13,0.02,2.25,0,3.38,0.01c0.78,0,1.42,0.48,1.66,1.19c0.22,0.66,0.28,1.35,0.39,2.02c0.06,0.33,0.11,0.67,0.17,1.01
	c0.08,0,0.14,0,0.21,0c5.88,0,11.76,0,17.64,0c0.38,0,0.75,0,1.13,0c0.81,0.01,1.63-0.01,2.44,0.05c0.76,0.06,1.36,0.38,1.54,1.17
	c0,0.14,0,0.28,0,0.41c-0.83,2.31-1.66,4.62-2.51,6.93c-0.13,0.36-0.33,0.72-0.56,1.04c-0.39,0.55-0.99,0.79-1.67,0.8
	c-1.33,0.02-2.66,0.01-3.98,0.01 M26.7,6.81C20.35,6.79,14.01,6.77,7.66,6.74c0.36,1.76,0.71,3.51,1.07,5.26c5.31,0,10.6,0,15.91,0
	C25.32,10.29,26.01,8.56,26.7,6.81z"></path>
    <circle cx="11.51" cy="23.37" r="2.64"></circle>
    <circle cx="22.79" cy="23.37" r="2.64"></circle>
    <path d="M28.87,4.27c-0.14-0.01-0.38-0.04-0.47-0.04H7.22L6.61,1.2C6.46,0.44,5.74-0.08,4.98,0.01C4.96,0,4.95,0,4.93,0
	H1.61C0.72,0,0,0.72,0,1.61v0.12c0,0.88,0.72,1.61,1.61,1.61h2.35l3.06,15.2c0.03,0.15,0.08,0.3,0.16,0.43
	c0.16,0.51,0.64,0.88,1.21,0.88h16.8c0.7,0,1.28-0.58,1.28-1.28c0-0.71-0.58-1.29-1.28-1.29H9.85l-0.54-2.67h16.54
	c0.52,0,0.96-0.3,1.18-0.73c0.01-0.02,0.02-0.04,0.03-0.06c0.05-0.07,0.08-0.14,0.11-0.22l2.72-7.43c0.26-0.72-0.15-1.6-0.75-1.84
	 M8.79,12.01L7.73,6.74h18.78l-1.93,5.27H8.79z"></path>
  </symbol>
  <symbol version="1.2" xmlns="http://www.w3.org/2000/svg" viewBox="0 0 29 18" id="uk_flag">
    <path fill="#0072bc" d="m0 0h29v9h-29z"></path>
    <path fill="#e4d341" d="m0 9h29v9h-29z"></path>
  </symbol>
  <symbol id="close" xmlns="http://www.w3.org/2000/svg" viewBox="0 0 24 24" fill="#FFFFFF">
    <path d="M0 0h24v24H0V0z" fill="none"/><path d="M18.3 5.71c-.39-.39-1.02-.39-1.41 0L12 10.59 7.11 5.7c-.39-.39-1.02-.39-1.41 0-.39.39-.39 1.02 0 1.41L10.59 12 5.7 16.89c-.39.39-.39 1.02 0 1.41.39.39 1.02.39 1.41 0L12 13.41l4.89 4.89c.39.39 1.02.39 1.41 0 .39-.39.39-1.02 0-1.41L13.41 12l4.89-4.89c.38-.38.38-1.02 0-1.4z"/>
  </symbol>
  <symbol version="1.1" id="email" xmlns="http://www.w3.org/2000/svg" xmlns:xlink="http://www.w3.org/1999/xlink" x="0px" y="0px" xml:space="preserve" viewBox="0 0 40 28">
    <polygon points="12.56,14.04 0,26.46 0,1.61 "></polygon>
    <path d="M39.37,0.11l-16,15.83c-1.77,1.75-4.64,1.75-6.41,0L0.89,0.04C0.94,0.03,1,0.03,1.05,0.03h37.9
	C39.1,0.03,39.24,0.06,39.37,0.11z"></path>
    <path d="M39.08,28C39.04,28,38.99,28,38.95,28H1.05C1.01,28,0.97,28,0.93,28L13.8,15.26l1.92,1.9
	c1.23,1.21,2.83,1.82,4.44,1.82c1.61,0,3.22-0.61,4.44-1.82l1.76-1.74L39.08,28z"></path>
    <polygon points="40,1.94 40,26.45 27.61,14.19 "></polygon>
  </symbol>
  <symbol version="1.1" id="fish" xmlns="http://www.w3.org/2000/svg" xmlns:xlink="http://www.w3.org/1999/xlink" x="0px" y="0px" xml:space="preserve" viewBox="0 0 405 100">
    <path d="M402.22,0.14c-2.61-0.07-5.27-0.17-7.82,0.28c-9.26,1.63-16.86,5.09-25.26,10.96
	c-6.19,3.84-10.28,7.48-15.5,11.12c-8.23,5.72-16.24,11.81-24.85,16.89c-4.13,2.44-9.36,3.87-14.18,4.1
	c-5.31,0.26-10.69-0.73-16.64-1.49c-0.93-0.12-1.33-1.19-0.78-1.95c1.12-1.53-0.28-2.89-1.41-4.57c-1.21-1.79-1.93-4.4-1.71-6.52
	c0.33-3.23,1.72-6.34,2.55-9.53c0.23-0.88,0.34-1.79,0.45-2.79c0.09-0.8-0.6-1.46-1.39-1.35c-4.87,0.7-9.06,1.86-12.72,4.67
	c-6.05,4.64-12.19,9.18-18.23,13.83c-5.25,4.04-13.63,5.24-18.27,1.97c-2.49-1.75-4.44-2.37-7.41-1.17
	c-2.63,1.06-5.61,1.17-7.13-2.43c-0.21-0.49-1.71-0.68-2.58-0.6c-2.26,0.21-4.5,0.93-6.74,0.89c-1.4-0.03-3.33-0.71-4.04-1.76
	c-1.34-1.98-2.66-1.72-4.32-0.94c-2.53,1.18-5.09,1.71-7.28-0.5c-1.72-1.74-3.41-1.66-5.5-0.85c-2.7,1.04-5.45,1.74-8.03-0.6
	c-0.49-0.45-1.82-0.52-2.46-0.18c-3.65,1.93-7.16,1.23-10.4-0.68c-2.17-1.28-3.79-0.69-5.97-0.11c-2.91,0.78-6.49,1.37-9.09,0.32
	c-2.71-1.1-4.7-1.23-7.31-0.32c-3.67,1.27-7.72,2.38-11.22,0.1c-2.66-1.72-4.73-1.47-7.22-0.2c-3.22,1.64-6.63,2.9-10.08,0.83
	c-2.16-1.29-3.86-0.96-5.96,0.13c-3.05,1.59-6.38,2.87-9.78,1.06c-2-1.06-3.53-0.87-5.28,0.46c-3.99,3.05-8.39,4.44-13.47,3.13
	c-0.81-0.21-2.06,0.2-2.75,0.76c-3.09,2.49-6.55,3.23-10.46,3.44c-15.17,0.84-28.7,5.58-40.66,15.54
	c-8.97,7.46-19,10.53-33.25,14.02l-6.71,1.95C0,68.7,1.04,69.28,1.23,69.43c0.73,0.55,1.64,0.53,3.07,0.73
	c1.9,0.27,3.16,0.34,5.09,0.44c7.68,0.41,22.13,2.02,30.39,1.98c0.88,0,1.75,0.03,2.62,0.09c-0.58,2.1-2.16,4-3.83,5.33l-1.08,0.8
	c2.45-1.2,4.82-3.07,5.97-5.55c0.69,2.21,0.21,4.83-0.66,6.93l-0.57,1.22c1.57-2.22,2.74-4.99,2.55-7.72
	c1.37,2.15,1.75,4.97,1.74,7.47l-0.08,1.61c0.98-2.99,1.45-6.47,0.57-9.54c3.01,0.48,6.01,1.13,9,1.61c1.2,0.19,2.31,0.93,3.86,1.68
	c0.35,0.17,0.76,0.15,1.1-0.03l0.64-2.61c0.24-0.14,1.61,3.93,1.61,3.93c0.18,1.1,1.34,1.74,2.37,1.32
	c0.74-0.31,5.31-2.02,6.94-2.22c6.4-0.81,12.79-1.81,19.23-2.15c5.56-0.29,12-1.92,16.33,8.69c0.46,1.13,2.42,4.07,3.36,4.89
	c4.97,4.35,9.84,8.93,16.68,10.17c3.83,0.7,5.37-0.25,3.63-3.53c-3.62-6.78,1.96-7.89-0.86-13.6c-0.82-1.67,3.9-0.68,4.4-0.7
	c10.93-0.33,21.96,0.19,32.76-1.16c19.22-2.39,38.31-5.81,57.43-9.01c2.42-0.41,4.87,0.38,6.67,2.05c3.85,3.56,8.13,6.7,12.47,9.67
	c0.94,0.64,4.4-3.67,5.6-6.06c1.74-3.45-0.81-8.92-2.01-9.96c1.1-0.2,1.64-0.26,2.16-0.39c6.43-1.6,13.46-0.25,19.48-4.15
	c1.11-0.72,3.3-0.57,4.61,0.03c2.32,1.06,4.66,2.46,6.43,4.28c4.99,5.15,10.93,8.59,17.74,10.44c1.99,0.54,4.84,1.1,5.73,0.6
	c1.47-0.83,2.12-1.9,0.7-8.16c-2.98-7.02-6.3-8.45-10.05-10.66c-0.95-0.56,0.75-2.32,1.82-2.57c8.1-1.93,17.76-1.39,25.25,2.59
	c7.2,3.83,13.83,8.73,20.85,12.94c3.57,2.14,7.38,3.92,11.22,5.55c3.82,1.6,5.12,2.53,5.03,0.66c-0.05-1-2.77-7.54-4.39-12.14
	c-2.06-8.22-2.06-8.22-1.33-12.12c0.73-3.86,14.9-24.71,23.67-32.67C395.57,3.69,400.93,3.68,402.3,3.28c0.88-0.26,1.95-1,2-1.88
	C404.33,1,402.97,0.16,402.22,0.14z M53.15,64.43c-2.65-0.16-4.57-2.31-4.49-5.03c0.08-2.86,2.3-4.93,5.11-4.76
	c2.6,0.16,4.6,2.39,4.53,5.04C58.22,62.5,55.94,64.61,53.15,64.43z M98.56,61.6c-0.47,3.6-2.16,5.69-5.29,7.25
	c-0.99,0.49-1.51,1.92-2.55,2.84c1.64-4.96,6.34-9.77,3.33-15.03c-1.03-1.8-2.35-3.43-3.83-5.02c-0.99-1.08-7.06-6.2-5.9-5.32
	c0.03,0.02,4.01,1.13,7.58,3.58c2.04,1.4,3.73,2.84,5.22,5.39C98.44,57.58,98.91,58.96,98.56,61.6z M323.02,49.81
	c-27.12,0.09-54.24-0.24-81.34,0.31c-28.12,0.58-56.22,2.32-84.34,2.94c-13.18,0.29-26.4-0.8-39.6-1.41
	c-6.14-0.29-12.27-0.85-18.38-1.5c-1.88-0.2-6.52-2.6-6.95-3.23c-0.38-0.56-0.24-1.32,0.32-1.7c0.72-0.48,4.59,0.2,6.09,1.02
	c0.44,0.24,0.98,0.18,1.37-0.14l1.86-1.59c0.51-0.44,1.28-0.37,1.71,0.15l1.83,2.2c0.42,0.51,1.18,0.59,1.7,0.18
	c2.23-1.77,4.54-5,6.88-0.56c0.37,0.69,1.3,0.86,1.88,0.33c2.35-2.12,4.62-4.04,6.49-0.22c0.3,0.63,1.08,0.85,1.69,0.51
	c3.64-2,3.97-1.67,7.63,1.92c0.4-0.21,1.02-0.34,1.33-0.72c2.53-3.09,5.02-4.32,8.39-0.83c0.6,0.63,3.27,0.12,4.34-0.7
	c4.15-3.16,4.1-3.34,7.85,0.06c1.92,1.75,3.54,1.47,5.41-0.05c4.4-3.57,4.5-3.6,8.57-0.17c2.3,1.95,3.98,0.85,5.61-0.78
	c1.83-1.82,3.5-2.1,5.62-0.29c4.5,3.84,9.15-0.98,9.7-1.33c1.04,1.17,2.08,2.35,3.27,3.68c0.49,0.56,1.36,0.55,1.84-0.01
	c1.35-1.6,2.58-3.06,3.84-4.54c0.4,0.3,2.96,5.11,6.71,2.31c1.98-1.48,3.4-1.36,4.98,0.4c0.51,0.57,1.13,1.04,1.81,1.57
	c0.52,0.4,1.28,0.31,1.88-0.43l1.42-1.75c0.49-0.6,1.4-0.59,1.89,0.01c2.25,2.75,4.45,1.98,6.46-0.33c0.45-0.52,1.24-0.59,1.75-0.13
	c1.43,1.3,2.73,2.74,3.89,2.64c1.28-0.11,2.44-1.52,3.77-2.88c0.55-0.56,1.48-0.46,1.89,0.21c0,0,2.92,2.91,3.39,2.14l1.49-2.45
	c0.42-0.71,1.42-0.79,1.95-0.16c2.92,3.41,3.3,3.09,7.37,0.42c0.73-0.48,2.55-0.67,2.83-0.27c2.5,3.6,4.85,2.14,7.61,0.2
	c0.57-0.4,2.24,1.13,2.52,1.5c1.34,1.72,2.81,2.2,4.55,0.47c1.53-1.53,3.02-1.97,5.05-0.43c0.78,0.59,4.71,0.21,4.94,0.38
	c2.12,1.63,2.24,1.45,5.09,0.39c2.28-0.84,6.82-0.77,7.03-0.75c3.01,0.37,5.78,0.46,8.81,0.72c1.44,0.13,2.92-0.17,4.38-0.25
	c0.64-0.04,4.52,0.2,5,0.48c1.6,0.95,5.72,0.77,6.98,0.57c3.7-1.09,6.57-0.22,8.97-0.21c0.03,0,0.06,0.01,0.09,0.02
	c0.33,0.1,2.59,0.21,5.39,0.34C327.56,48.47,324.56,49.81,323.02,49.81z"></path>
    <path d="M33.77,86.45"></path>
    <path d="M97.32,45.42"></path>
  </symbol>

  <symbol  version="1.1" id="trashBox" xmlns="http://www.w3.org/2000/svg" xmlns:xlink="http://www.w3.org/1999/xlink" x="0px" y="0px" xml:space="preserve" viewBox="0 0 24 24" fill="#003b95"><path d="M7 21Q6.175 21 5.588 20.413Q5 19.825 5 19V6H4V4H9V3H15V4H20V6H19V19Q19 19.825 18.413 20.413Q17.825 21 17 21ZM17 6H7V19Q7 19 7 19Q7 19 7 19H17Q17 19 17 19Q17 19 17 19ZM9 17H11V8H9ZM13 17H15V8H13ZM7 6V19Q7 19 7 19Q7 19 7 19Q7 19 7 19Q7 19 7 19Z"/></symbol>

	<symbol  version="1.1" id="globus" xmlns="http://www.w3.org/2000/svg" xmlns:xlink="http://www.w3.org/1999/xlink" x="0px" y="0px" xml:space="preserve" viewBox="0 0 512 512" fill="#003b95"><!--! Font Awesome Pro 6.1.1 by @fontawesome - https://fontawesome.com License - https://fontawesome.com/license (Commercial License) Copyright 2022 Fonticons, Inc. --><path d="M352 256C352 278.2 350.8 299.6 348.7 320H163.3C161.2 299.6 159.1 278.2 159.1 256C159.1 233.8 161.2 212.4 163.3 192H348.7C350.8 212.4 352 233.8 352 256zM503.9 192C509.2 212.5 512 233.9 512 256C512 278.1 509.2 299.5 503.9 320H380.8C382.9 299.4 384 277.1 384 256C384 234 382.9 212.6 380.8 192H503.9zM493.4 160H376.7C366.7 96.14 346.9 42.62 321.4 8.442C399.8 29.09 463.4 85.94 493.4 160zM344.3 160H167.7C173.8 123.6 183.2 91.38 194.7 65.35C205.2 41.74 216.9 24.61 228.2 13.81C239.4 3.178 248.7 0 256 0C263.3 0 272.6 3.178 283.8 13.81C295.1 24.61 306.8 41.74 317.3 65.35C328.8 91.38 338.2 123.6 344.3 160H344.3zM18.61 160C48.59 85.94 112.2 29.09 190.6 8.442C165.1 42.62 145.3 96.14 135.3 160H18.61zM131.2 192C129.1 212.6 127.1 234 127.1 256C127.1 277.1 129.1 299.4 131.2 320H8.065C2.8 299.5 0 278.1 0 256C0 233.9 2.8 212.5 8.065 192H131.2zM194.7 446.6C183.2 420.6 173.8 388.4 167.7 352H344.3C338.2 388.4 328.8 420.6 317.3 446.6C306.8 470.3 295.1 487.4 283.8 498.2C272.6 508.8 263.3 512 255.1 512C248.7 512 239.4 508.8 228.2 498.2C216.9 487.4 205.2 470.3 194.7 446.6H194.7zM190.6 503.6C112.2 482.9 48.59 426.1 18.61 352H135.3C145.3 415.9 165.1 469.4 190.6 503.6V503.6zM321.4 503.6C346.9 469.4 366.7 415.9 376.7 352H493.4C463.4 426.1 399.8 482.9 321.4 503.6V503.6z"/></symbol>
    <symbol id="close" xmlns="http://www.w3.org/2000/svg"  viewBox="0 0 50 50" width="50px" height="50px"><path d="M 9.15625 6.3125 L 6.3125 9.15625 L 22.15625 25 L 6.21875 40.96875 L 9.03125 43.78125 L 25 27.84375 L 40.9375 43.78125 L 43.78125 40.9375 L 27.84375 25 L 43.6875 9.15625 L 40.84375 6.3125 L 25 22.15625 Z"/></symbol>
</svg>

